<?xml version="1.0" encoding="utf-8"?>
<!-- Uploaded to: SVG Repo, www.svgrepo.com, Generator: SVG Repo Mixer Tools -->
<svg width="800px" height="800px" viewBox="0 0 1024 1024" class="icon"  version="1.1" xmlns="http://www.w3.org/2000/svg"><path d="M213.333333 192c-46.933333 0-85.333333 38.4-85.333333 85.333333v554.666667c0 46.933333 38.4 85.333333 85.333333 85.333333h341.333334c46.933333 0 85.333333-38.4 85.333333-85.333333V277.333333c0-46.933333-38.4-85.333333-85.333333-85.333333" fill="#673AB7" /><path d="M298.666667 277.333333h42.666666v554.666667h-42.666666zM512 192V149.333333c0-25.6-17.066667-42.666667-42.666667-42.666666h-170.666666c-25.6 0-42.666667 17.066667-42.666667 42.666666v42.666667h256z" fill="#311B92" /><path d="M640 277.333333H341.333333v554.666667h298.666667V277.333333z m-192 512h-64v-85.333333h64v85.333333z m0-384h-64v-85.333333h64v85.333333z m128 384h-64v-85.333333h64v85.333333z m-64-384v-85.333333h64v85.333333h-64z" fill="#D84315" /><path d="M640 277.333333v42.666667h64v85.333333h-64v298.666667h64v85.333333h-64v42.666667h256V277.333333H640z m192 512h-64v-85.333333h64v85.333333z m0-384h-64v-85.333333h64v85.333333z" fill="#FF5722" /></svg>